<?xml version="1.0" encoding="utf-8"?>
<!-- Generator: Adobe Illustrator 23.0.6, SVG Export Plug-In . SVG Version: 6.00 Build 0)  -->
<svg version="1.1" id="Layer_1" xmlns="http://www.w3.org/2000/svg" xmlns:xlink="http://www.w3.org/1999/xlink" x="0px" y="0px"
	 viewBox="0 0 80 80" style="enable-background:new 0 0 80 80;" xml:space="preserve">
<style type="text/css">
	.st0{fill:none;stroke:#6D6D6D;stroke-width:1.9198;stroke-miterlimit:10;}
</style>
<path class="st0" d="M61,78.1H19c-9.5,0-17.2-7.7-17.2-17.2V18.8C1.8,9.4,9.5,1.6,19,1.6H61c9.5,0,17.2,7.7,17.2,17.2v42.1
	C78.3,70.4,70.5,78.1,61,78.1z"/>
<path class="st0" d="M53.1,60.6H26.9c-4.2,0-7.7-3.5-7.7-7.7V26.8c0-4.2,3.5-7.7,7.7-7.7h26.2c4.2,0,7.7,3.5,7.7,7.7v26.2
	C60.8,57.2,57.3,60.6,53.1,60.6z"/>
<line class="st0" x1="40.1" y1="30.2" x2="40.1" y2="48.4"/>
<line class="st0" x1="49.2" y1="39.3" x2="31" y2="39.3"/>
</svg>
