<svg xmlns="http://www.w3.org/2000/svg" viewBox="0 0 233.8 104.47"><defs><style>.cls-1{fill:#f3bb34;}.cls-2{fill:#7f59ab;}.cls-3{fill:none;}.cls-4{fill:#7ec434;}.cls-5{fill:#f06622;}.cls-6{fill:#e21e56;}.cls-7{fill:#fff;}</style></defs><title>colorTapTitle</title><g id="Layer_2" data-name="Layer 2"><g id="Main"><g id="title"><g id="title-2" data-name="title"><g id="colorTitle"><path class="cls-1" d="M58.69,94.08q-5.85,5.34-16.86,8.61Q27.48,107,16.73,101t-14.92-20q-4.44-15,2-27T25.07,37.43a47,47,0,0,1,16.09-2.28l4,13.54a28.39,28.39,0,0,0-15.39.5Q21,51.8,17.26,58.94t-1,16.58q2.7,9,9.39,12.91T41,89.72a30.43,30.43,0,0,0,13.86-8.48Z"/><path class="cls-2" d="M90.45,88.23q-11.15,3.31-19.38-1T59.65,72.14q-3.28-11,1.47-19.26t16-11.57q11.1-3.3,19.27,1.07T107.64,57q3.3,11.08-1.29,19.47T90.45,88.23ZM80,51.92a9.55,9.55,0,0,0-6.57,5.6q-1.71,4.15.12,10.29,3.83,12.84,14.18,9.76,9.87-2.94,6-16.12Q90,49,80,51.92Z"/><path class="cls-3" d="M173.52,37.7q-3.72-12.5-13.68-9.53a9.6,9.6,0,0,0-6.58,5.61q-1.69,4.15.13,10.29a20.79,20.79,0,0,0,3,6.41l18.24-5.36A22.41,22.41,0,0,0,173.52,37.7Z"/><polygon class="cls-4" points="117.5 7.18 103.74 11.28 118.7 61.54 132.47 57.5 117.5 7.18"/><path class="cls-5" d="M153.39,44.07q-1.83-6.14-.13-10.29a9.6,9.6,0,0,1,6.58-5.61q10-3,13.68,9.53a22.41,22.41,0,0,1,1.09,7.42l14.2-4.18a32.27,32.27,0,0,0-1.35-7.67Q184.4,23,176.23,18.63T157,17.56q-11.28,3.36-16,11.57T139.47,48.4a30.52,30.52,0,0,0,2.63,6.27l14.27-4.19A20.79,20.79,0,0,1,153.39,44.07Z"/><path class="cls-6" d="M210.61,28.13q-1.68-5.65-.14-9.69a8.74,8.74,0,0,1,6-5.37,12.37,12.37,0,0,1,6.19-.37L218.93,0a9.2,9.2,0,0,0-3.55.49Q206.89,3,206.32,13.07l-.18,0-2.46-8.27L189.93,8.94l8.67,29.13,13.76-4Z"/></g><path d="M229.1,31.23,233.8,47,94.46,88.76s16.1-5.12,16.12-22.88C117.56,64,229.1,31.23,229.1,31.23Z"/><path id="t" class="cls-7" d="M121.72,67.69l-3.3,1,2.81,9.43-2.61.78-2.81-9.44-3.28,1-.63-2.12,9.19-2.73Z"/><path id="a1" class="cls-7" d="M136.24,73.64l-2.83.84-1.59-2.33-4.11,1.23,0,2.81-2.82.84.77-12.81,3.08-.92Zm-5.61-3.31-2.4-3.51a5.57,5.57,0,0,1-.5-1h-.07a4.27,4.27,0,0,1,.1,1.07l-.09,4.29Z"/><path id="p" class="cls-7" d="M139.1,68.45l1.19,4-2.6.78-3.44-11.56,4.07-1.21c2.92-.87,4.74-.07,5.47,2.38a3.71,3.71,0,0,1-.42,3.19,5.12,5.12,0,0,1-3,2.07Zm-1.66-5.57,1.08,3.6,1-.31c1.39-.41,1.9-1.22,1.54-2.44s-1.23-1.57-2.61-1.16Z"/><path id="a2" class="cls-7" d="M158,67.17l-2.83.84-1.59-2.32-4.11,1.22,0,2.81-2.82.84.77-12.81,3.09-.92Zm-5.61-3.3L150,60.35a5.91,5.91,0,0,1-.5-1l-.06,0a4.65,4.65,0,0,1,.09,1.06l-.09,4.3Z"/><path id="m1" class="cls-7" d="M172.59,62.82l-2.57.77L168,56.67c-.23-.74-.44-1.58-.64-2.5l-.07,0a13.29,13.29,0,0,1,.1,1.64L167,64.49l-2.13.63-5.07-7a14.74,14.74,0,0,1-.84-1.51l-.08,0c.41,1.12.74,2.11,1,3l1.9,6.39-2.34.7L156,55.18l3.81-1.13,4.4,6.15a9.88,9.88,0,0,1,.9,1.53l.05,0a16.21,16.21,0,0,1,0-1.8l.33-7.54,3.72-1.1Z"/><path id="o" class="cls-7" d="M180.16,60.79a5.64,5.64,0,0,1-4.52-.41,6.1,6.1,0,0,1-2.82-3.75,6.5,6.5,0,0,1,.27-4.9,5.73,5.73,0,0,1,3.7-2.95,5.52,5.52,0,0,1,4.49.43A6.21,6.21,0,0,1,184.07,53a6.39,6.39,0,0,1-.27,4.86A5.7,5.7,0,0,1,180.16,60.79ZM177.39,51a2.73,2.73,0,0,0-1.87,1.68,5.21,5.21,0,0,0,1.61,5.44,2.91,2.91,0,0,0,4.26-1.24,4.37,4.37,0,0,0,0-2.93,4.7,4.7,0,0,0-1.6-2.57A2.63,2.63,0,0,0,177.39,51Z"/><path id="n" class="cls-7" d="M198.13,55.22,195.5,56l-6.92-5.85a10.17,10.17,0,0,1-.86-.78h0a18.34,18.34,0,0,1,.62,1.85l1.89,6.35-2.45.73L184.3,46.76l2.8-.83,6.68,5.67c.3.25.59.51.86.77h0a13.2,13.2,0,0,1-.53-1.57l-1.9-6.39,2.45-.73Z"/><path id="i" class="cls-7" d="M200.91,41.82l.6,2-1,.28,2.24,7.53,1-.29.6,2-4.53,1.35-.6-2,1-.29-2.23-7.52-1,.29-.6-2Z"/><path id="u" class="cls-7" d="M213.94,45.08q1.55,5.2-3.31,6.64-4.69,1.41-6.22-3.68l-2-6.67,2.61-.78,2,6.71c.56,1.87,1.57,2.58,3,2.15s1.88-1.55,1.35-3.35l-2-6.8,2.61-.78Z"/><path id="m2" class="cls-7" d="M231.11,45.41l-2.58.77-2.05-6.92c-.22-.74-.44-1.58-.64-2.5l-.07,0a13.39,13.39,0,0,1,.1,1.64l-.37,8.66-2.13.64-5.07-7a15.35,15.35,0,0,1-.84-1.5l-.07,0c.4,1.11.74,2.1,1,3l1.9,6.39-2.34.7L214.5,37.78l3.81-1.14,4.4,6.15a9.88,9.88,0,0,1,.9,1.53l0,0c0-.68-.06-1.28,0-1.8L224,35l3.72-1.1Z"/></g></g></g></g></svg>