<svg xmlns="http://www.w3.org/2000/svg" viewBox="0 0 237.81 99.71"><defs><style>.cls-1{fill:#f3bb30;}.cls-2{fill:#805aa6;}.cls-3{fill:#7fc342;}.cls-4{fill:#ef6724;}.cls-5{fill:#010101;}.cls-6{fill:#fff;}</style></defs><title>gameOverTitle</title><g id="Layer_2" data-name="Layer 2"><g id="Layer_1-2" data-name="Layer 1"><path class="cls-1" d="M62.41,88.54a65.63,65.63,0,0,1-19,9.18c-10.47,3-19.22,2.65-26.69-1.31C9.68,92.72,4.15,85.48,1.5,76.12-4.09,56.42,6.31,39.86,26.85,34c7.63-2.19,14-2.35,17.3-1.8l.1,9.84c-3.8-.52-8.29-.48-14.86,1.4C16.18,47.2,9.09,57.71,13.22,72.13c4,14.12,15.12,20,28,16.27,4.1-1.18,7-2.58,8.21-3.69L45,69.22,34,72.35l-2.55-8.91,21.93-6.28Z"/><path class="cls-2" d="M100.31,80.75,98.1,76l-.27.08c-1.7,4.31-5.68,8.12-11.49,9.79-9.09,2.6-16-2.45-17.94-9.29C65.16,65.25,73.59,56.64,90.12,52l-.21-.74c-.85-3-3.41-7.51-11.34-5.21a24.88,24.88,0,0,0-11.09,6.79l-4.35-6.71c2.79-3,8.05-6.61,15.1-8.63,14.38-4.12,21.08,3.77,23.89,13.61l4.62,16.13a70.94,70.94,0,0,0,3.79,10.6ZM92.52,59.23c-8,2.18-15.19,6.06-13.24,12.88,1.26,4.39,4.73,5.63,8.31,4.61A9.6,9.6,0,0,0,94.69,68a9.07,9.07,0,0,0-.39-2.56Z"/><path class="cls-3" d="M152.72,36.64a13.08,13.08,0,0,1-.51-4,8.87,8.87,0,0,1,6.17-8.22c5.41-1.55,9.25,2.09,11.39,9.56L174.9,52a24.36,24.36,0,0,0,3.21-12.7c1-.27,2.67-.73,4.73-1.33l-2.47-8.65C176.25,14.9,167.25,12,159.84,14.11a16.19,16.19,0,0,0-8.36,5.24,19.06,19.06,0,0,0-3.86,7.2l-.19.06a13.38,13.38,0,0,0-14.8-4.71A16,16,0,0,0,121,33.45l-.27.07-2.4-6.43-9.68,2.77c1.32,3.83,2.7,8,4.19,13.23l9,31.49,11.06-3.17-7.59-26.49a12,12,0,0,1-.51-3.91c.19-3.38,2.07-7.52,6.32-8.74,5.21-1.49,9,2.2,10.8,8.51l7.43,25.92,11-3.17Z"/><path class="cls-4" d="M192.21,35.16,202.88,32c-.18-.42-.35-.85-.5-1.3l30-8.59a25,25,0,0,0-1-4.87c-2.81-9.82-11-20.44-25.55-16.27s-18.57,18-15,30.35A31.07,31.07,0,0,0,192.21,35.16ZM207.35,8.87C215,6.7,218.69,13,219.83,17.12L200.1,22.77C199.29,18,200.38,10.87,207.35,8.87Z"/><path class="cls-5" d="M233.11,24.32l4.7,15.79L163.09,63s16.1-5.12,16.12-22.88C186.19,38.32,233.11,24.32,233.11,24.32Z"/><path class="cls-6" d="M194.42,51.27a5.82,5.82,0,0,1-4.7-.41A6.26,6.26,0,0,1,186.78,47a6.71,6.71,0,0,1,.26-5.09,6,6,0,0,1,3.83-3.08,5.72,5.72,0,0,1,4.66.43,6.47,6.47,0,0,1,2.92,3.95,6.65,6.65,0,0,1-.26,5.05A5.88,5.88,0,0,1,194.42,51.27ZM191.5,41.16a2.85,2.85,0,0,0-1.94,1.75,4.61,4.61,0,0,0,0,3.07,4.54,4.54,0,0,0,1.69,2.57,2.77,2.77,0,0,0,2.5.37,2.82,2.82,0,0,0,1.91-1.67,4.54,4.54,0,0,0,0-3A4.91,4.91,0,0,0,194,41.54,2.68,2.68,0,0,0,191.5,41.16Z"/><path class="cls-6" d="M208.64,33.66l-.51,13.24-3.06.92-7.7-10.75,2.91-.88,5,7.59a5.94,5.94,0,0,1,.6,1.12l0,0a7.25,7.25,0,0,1-.11-1.3l0-9.06Z"/><path class="cls-6" d="M220.89,43l-7.19,2.18-3.62-12L217,31.14l.67,2.2-4.22,1.27.81,2.67,3.92-1.19.66,2.19-3.92,1.19.83,2.74,4.49-1.36Z"/><path class="cls-6" d="M232.87,39.42l-3.1.94L227,37.84l-.59-.51a3.71,3.71,0,0,0-.53-.35,1.78,1.78,0,0,0-.5-.18,1.08,1.08,0,0,0-.5,0l-.72.22,1.38,4.59-2.7.81-3.62-12,4.28-1.29q4.36-1.32,5.35,1.94a3.48,3.48,0,0,1,.16,1.22,3.33,3.33,0,0,1-.26,1.12,3.72,3.72,0,0,1-.62,1,4.52,4.52,0,0,1-1,.82v0a1.94,1.94,0,0,1,.6.12,3.37,3.37,0,0,1,.61.29c.21.12.41.26.61.4s.39.3.56.45ZM222.5,31.68l1,3.34,1.17-.36a2,2,0,0,0,1.24-.92,1.74,1.74,0,0,0,.16-1.43c-.32-1-1.1-1.38-2.36-1Z"/></g></g></svg>